<svg id="Linkedin_Icon" data-name="Linkedin Icon " xmlns="http://www.w3.org/2000/svg" width="48" height="48" viewBox="0 0 48 48">
  <defs>
    <style>
      .cls-1 {
        fill: rgba(255,255,255,0.15);
      }

      .cls-2 {
        fill: none;
        stroke: #fa1772;
      }
    </style>
  </defs>
  <rect id="Background_Area" data-name="Background Area" class="cls-1" width="48" height="48" rx="24"/>
  <path id="Icon_awesome-linkedin" data-name="Icon awesome-linkedin" class="cls-2" d="M18.571,2.25H1.424A1.435,1.435,0,0,0,0,3.692V20.808A1.435,1.435,0,0,0,1.424,22.25H18.571A1.439,1.439,0,0,0,20,20.808V3.692A1.439,1.439,0,0,0,18.571,2.25ZM6.045,19.393H3.08V9.848H6.049v9.545ZM4.563,8.545A1.719,1.719,0,1,1,6.281,6.826,1.719,1.719,0,0,1,4.563,8.545ZM17.156,19.393H14.192V14.75c0-1.107-.022-2.531-1.54-2.531-1.545,0-1.781,1.205-1.781,2.451v4.723H7.906V9.848H10.75v1.3h.04A3.122,3.122,0,0,1,13.6,9.612c3,0,3.558,1.978,3.558,4.549Z" transform="translate(14.193 11.75)"/>
</svg>
